<svg width="24" height="26" viewBox="0 0 24 26" fill="none" xmlns="http://www.w3.org/2000/svg">
<g filter="url(#filter0_d)">
<path d="M18.6343 6.63434C18.9467 6.32192 19.4533 6.32192 19.7657 6.63434C20.0781 6.94676 20.0781 7.45329 19.7657 7.76571L10.1657 17.3657C9.85325 17.6781 9.34672 17.6781 9.0343 17.3657L5.0343 13.3657C4.72188 13.0533 4.72188 12.5468 5.0343 12.2343C5.34672 11.9219 5.85325 11.9219 6.16567 12.2343L9.59999 15.6687L18.6343 6.63434Z" fill="black"/>
</g>
<mask id="mask0" mask-type="alpha" maskUnits="userSpaceOnUse" x="4" y="6" width="16" height="12">
<path d="M18.6343 6.63434C18.9467 6.32192 19.4533 6.32192 19.7657 6.63434C20.0781 6.94676 20.0781 7.45329 19.7657 7.76571L10.1657 17.3657C9.85325 17.6781 9.34672 17.6781 9.0343 17.3657L5.0343 13.3657C4.72188 13.0533 4.72188 12.5468 5.0343 12.2343C5.34672 11.9219 5.85325 11.9219 6.16567 12.2343L9.59999 15.6687L18.6343 6.63434Z" fill="white"/>
</mask>
<g mask="url(#mask0)">
<g filter="url(#filter1_d)">
<rect width="24" height="24" fill="#0880AE"/>
</g>
</g>
<defs>
<filter id="filter0_d" x="0.799988" y="6.40002" width="23.2" height="19.2" filterUnits="userSpaceOnUse" color-interpolation-filters="sRGB">
<feFlood flood-opacity="0" result="BackgroundImageFix"/>
<feColorMatrix in="SourceAlpha" type="matrix" values="0 0 0 0 0 0 0 0 0 0 0 0 0 0 0 0 0 0 127 0"/>
<feOffset dy="4"/>
<feGaussianBlur stdDeviation="2"/>
<feColorMatrix type="matrix" values="0 0 0 0 0 0 0 0 0 0 0 0 0 0 0 0 0 0 0.25 0"/>
<feBlend mode="normal" in2="BackgroundImageFix" result="effect1_dropShadow"/>
<feBlend mode="normal" in="SourceGraphic" in2="effect1_dropShadow" result="shape"/>
</filter>
<filter id="filter1_d" x="-4" y="0" width="32" height="32" filterUnits="userSpaceOnUse" color-interpolation-filters="sRGB">
<feFlood flood-opacity="0" result="BackgroundImageFix"/>
<feColorMatrix in="SourceAlpha" type="matrix" values="0 0 0 0 0 0 0 0 0 0 0 0 0 0 0 0 0 0 127 0"/>
<feOffset dy="4"/>
<feGaussianBlur stdDeviation="2"/>
<feColorMatrix type="matrix" values="0 0 0 0 0 0 0 0 0 0 0 0 0 0 0 0 0 0 0.25 0"/>
<feBlend mode="normal" in2="BackgroundImageFix" result="effect1_dropShadow"/>
<feBlend mode="normal" in="SourceGraphic" in2="effect1_dropShadow" result="shape"/>
</filter>
</defs>
</svg>
